<svg version="1.1" id="Layer_1" xmlns="http://www.w3.org/2000/svg" x="0px" y="0px" viewBox="25 0 128 128"
     xml:space="default">
    <g>
        <path d="M64.2,22.4l0.2-0.1l4.2-2.1l-2.8,4c0,0-3.7,5.1,1.7,7c0,0,0.1,0,0.1,0l0,0c5.5,1.9,5.5-4.6,5.5-4.6l0.2-4.8l2,4.3l0,0.1
		c0,0,1.2,2.7,3.4,3.2c1,0.2,2.2,0,3.5-1.2c4.4-3.8-1.2-7.1-1.2-7.1l-0.1,0L77,18.5l4.5,0.4l0.3,0.1c0,0,4.8,0.5,5.3-3.1
		c0.1-0.5,0-1.1-0.1-1.8c-1.1-5.8-6.7-2.5-6.7-2.5l-0.2,0.1L76,13.7l2.8-4c0,0,3.7-5.1-1.7-7c0,0-0.1,0-0.1,0c0,0,0,0,0,0
		c-5.5-1.9-5.5,4.5-5.5,4.5l-0.3,4.9l-2-4.3l-0.1-0.1c0,0-1.4-3.2-4-3.3c-0.9,0-1.8,0.3-2.9,1.3c-4.4,3.8,1.2,7.1,1.2,7.1l0.1,0
		l4.1,2.6L63,15l-0.3-0.1c0,0-4.8-0.5-5.3,3.1c-0.1,0.5,0,1.1,0.1,1.8C58.6,25.6,64.2,22.4,64.2,22.4z"/>
        <path d="M105.5,91.2h-30l21.3-26.5c0.9-1.1,0.9-2.7,0-3.6c-1.1-0.9-2.5-0.8-3.5,0.1l-14.1,17V60.3c0-1.1-0.9-1.9-2-1.9
		c-1.1,0-1.9,0.8-1.9,1.9v18.4l-21,26.8l-13.8,10.7V108V97.9V79l28-28c1.2-1.2,1.3-3.4,0-4.7c-1.2-1.2-3.4-1.1-4.6,0.1L50.2,60
		l-1.5-16.9l13.9-13.9c-0.5-1.5-0.2-3,0.3-4.2c-0.9,0.2-1.9,0.4-3,0.2l-12,12L44.2,3.5c0-1.5-1.2-2.5-2.5-2.5
		c-1.5,0-2.4,1.2-2.4,2.5l2.1,22L28.8,12.9c-0.8-0.8-2-0.7-2.8,0c-0.8,0.8-0.7,1.9,0,2.7l13,13l3.9,33.8L30.5,74.7
		c0,0-2.1,2.3-2.1,5c0,1.3,0,12.2,0,23.5c0,6,0,12.2,0,16.9c0,2,0,3.4,0,4.4h14l11.7-9.1h26.1c1.7,0,3.4-1.5,3.4-3.4
		c0-1.7-1.6-3.2-3.4-3.2H61l11-13h33.7c1.3,0,2.3-1.1,2.3-2.4C107.9,92.2,106.8,91.2,105.5,91.2z"/>
    </g>
</svg>
