<svg width="572" height="500" fill="none" xmlns="http://www.w3.org/2000/svg">
    <path d="M0 0c63.908 33.122 127.665 66.244 194.897 88.809 67.081 22.433 137.637 34.178 197.163 68.355 59.527 34.046 108.176 90.525 136.428 151.226C556.589 369.224 564.295 434.412 572 499.6H0V0Z"
          fill="#EEF4FA"/>
    <path d="M0 99.894c51.066 26.523 102.132 53.047 155.918 70.994 53.634 17.946 110.139 27.448 157.73 54.763 47.591 27.316 86.571 72.314 109.082 121.007 22.511 48.562 28.706 100.818 34.9 152.942H0V99.894Z"
          fill="#D6E9FB"/>
    <path d="M0 199.919c38.375 19.794 76.599 39.72 116.938 53.18s82.491 20.586 118.298 41.04c35.807 20.453 64.966 54.235 81.887 90.788 16.77 36.421 21.454 75.613 25.986 114.673H0V199.919Z"
          fill="#BEDFFD"/>
    <path d="M0 299.813c25.533 13.196 51.066 26.392 77.959 35.497 26.893 8.973 54.994 13.724 78.865 27.316 23.871 13.591 43.361 36.157 54.541 60.437 11.331 24.413 14.353 50.409 17.375 76.537H0V299.813Z"
          fill="#A3D4FE"/>
    <path d="M0 399.706c12.842 6.598 25.533 13.196 38.98 17.683 13.446 4.487 27.497 6.862 39.432 13.724 11.936 6.862 21.605 18.078 27.346 30.219 5.59 12.14 7.101 25.204 8.612 38.268H0v-99.894Z"
          fill="#95CFFF"/>
</svg>
