<svg width="563" height="525" viewBox="0 20 563 525" fill="none" xmlns="http://www.w3.org/2000/svg">
    <path d="M562.998 525c-79.557-2.496-158.966-4.853-215.474-39.937-56.359-35.083-89.818-102.892-140.972-152.674-51.155-49.782-120.006-81.537-157.33-133.954C11.747 146.018 5.947 73.078 0 0h562.998v525Z"
          fill="#EEF4FA"/>
    <path d="M563.001 420.028c-63.646-1.942-127.143-3.883-172.349-32.033-45.206-28.011-71.973-82.23-112.867-122.028-40.894-39.798-95.915-65.313-125.805-107.191S117.332 58.379 112.573 0h450.428v420.028Z"
          fill="#D6E9FB"/>
    <path d="M563.003 314.917c-47.734-1.387-95.32-2.912-129.224-23.851-33.905-21.078-53.98-61.708-84.614-91.66-30.782-29.814-71.973-48.95-94.427-80.29C232.283 87.639 228.714 43.819 225.294 0h337.709v314.917Z"
          fill="#BEDFFD"/>
    <path d="M563.009 209.944c-31.823-.97-63.646-1.941-86.249-15.947-22.455-14.005-35.838-41.184-56.36-61.014-20.372-19.968-48.031-32.587-62.902-53.665C342.479 58.38 340.248 29.26 337.869 0h225.14v209.944Z"
          fill="#A3D4FE"/>
    <path d="M562.995 104.972c-15.912-.416-31.823-.97-43.125-7.904-11.301-7.072-17.993-20.662-28.105-30.646-10.261-9.845-24.09-16.224-31.526-26.763-7.435-10.4-8.625-25.099-9.814-39.659h112.57v104.972Z"
          fill="#95CFFF"/>
</svg>
