<svg width="271" height="271" viewBox="0 0 271 271" fill="none" xmlns="http://www.w3.org/2000/svg">
    <g opacity="0.66">
        <path d="M270.4 0C270.4 39.3 270.4 78.5 249.8 103.5C229.3 128.4 188.2 139 161.9 161.9C135.6 184.8 124 220.1 99.5 240.2C75 260.3 37.5 265.4 0 270.4V0H270.4Z"
              fill="#EEF4FA"/>
        <path d="M202.8 0C202.8 29.5 202.8 58.9 187.4 77.6C172 96.3 141.2 104.3 121.4 121.4C101.7 138.6 93 165.1 74.6 180.2C56.2 195.3 28.1 199 0 202.8V0H202.8Z"
              fill="#D6E9FB"/>
        <path d="M135.2 0C135.2 19.6 135.2 39.3 124.9 51.7C114.6 64.2 94.1 69.5 81 81C67.8 92.4 62 110 49.7 120.1C37.5 130.2 18.7 132.7 0 135.2V0H135.2Z"
              fill="#A3D4FE"/>
        <path d="M67.6 0C67.6 9.8 67.6 19.6 62.5 25.9C57.3 32.1 47.1 34.8 40.5 40.5C33.9 46.2 31 55 24.9 60.1C18.7 65.1 9.4 66.3 0 67.6V0H67.6Z"
              fill="#95CFFF"/>
    </g>
</svg>
