<svg width="572" height="500" viewBox="0 0 572 500" fill="none" xmlns="http://www.w3.org/2000/svg">
    <path d="M0 0C63.9081 33.1219 127.665 66.2439 194.897 88.809C261.978 111.242 332.534 122.987 392.06 157.164C451.587 191.21 500.236 247.689 528.488 308.39C556.589 369.224 564.295 434.412 572 499.6H0V0Z"
          fill="#EEF4FA"/>
    <path d="M0 99.8936C51.066 126.417 102.132 152.941 155.918 170.888C209.552 188.834 266.057 198.336 313.648 225.651C361.239 252.967 400.219 297.965 422.73 346.658C445.241 395.22 451.436 447.476 457.63 499.6H0V99.8936Z"
          fill="#D6E9FB"/>
    <path d="M0 199.919C38.3751 219.713 76.599 239.639 116.938 253.099C157.277 266.559 199.429 273.685 235.236 294.139C271.043 314.592 300.202 348.374 317.123 384.927C333.893 421.348 338.577 460.54 343.109 499.6H0V199.919Z"
          fill="#BEDFFD"/>
    <path d="M0 299.813C25.533 313.009 51.066 326.205 77.9588 335.31C104.852 344.283 132.953 349.034 156.824 362.626C180.695 376.217 200.185 398.783 211.365 423.063C222.696 447.476 225.718 473.472 228.74 499.6H0V299.813Z"
          fill="#A3D4FE"/>
    <path d="M0 399.706C12.842 406.304 25.533 412.902 38.9794 417.389C52.4258 421.876 66.4765 424.251 78.412 431.113C90.3476 437.975 100.017 449.191 105.758 461.332C111.348 473.472 112.859 486.536 114.37 499.6H0V399.706Z"
          fill="#95CFFF"/>
</svg>
