{"accessors" : [{"bufferView" : 0, "byteOffset" : 0, "componentType" : 5123, "count" : 54, "type" : "SCALAR", "max" : [53], "min" : [0]}, {"bufferView" : 1, "byteOffset" : 0, "componentType" : 5126, "count" : 54, "type" : "VEC3", "max" : [700, 1.3113021850585938E-05, 400], "min" : [0, -1324, -0.000213623046875], "name" : "POSITION"}, {"bufferView" : 1, "byteOffset" : 12, "componentType" : 5126, "count" : 54, "type" : "VEC3", "max" : [0, 0, 0], "min" : [0, 0, 0], "name" : "COLOR_0"}], "asset" : {"generator" : "Aspose.3D 22.7", "version" : "2.0"}, "buffers" : [{"uri" : "data:application/octet-stream;base64,", "byteLength" : 1412}], "bufferViews" : [{"buffer" : 0, "byteOffset" : 0, "byteLength" : 108, "target" : 34963}, {"buffer" : 0, "byteOffset" : 112, "byteLength" : 1296, "byteStride" : 24, "target" : 34962}], "materials" : [{"name" : "dxf-default", "pbrMetallicRoughness" : {"baseColorFactor" : [0.8999999761581421, 0.8999999761581421, 0.8999999761581421, 1], "metallicFactor" : 0, "roughnessFactor" : 0}, "emissiveFactor" : [0, 0, 0], "alphaMode" : "OPAQUE", "doubleSided" : false}], "meshes" : [{"primitives" : [{"attributes" : {"POSITION" : 1, "COLOR_0" : 2}, "indices" : 0, "material" : 0, "mode" : 4}], "name" : ""}], "nodes" : [{"mesh" : 0, "name" : "0"}], "scene" : 0, "scenes" : [{"nodes" : [0]}]}