{
  "asset": {
    "version": "2.0",
    "generator": "THREE.GLTFExporter"
  },
  "scenes": [
    {
      "name": "Scene",
      "nodes": [
        4
      ]
    }
  ],
  "scene": 0,
  "nodes": [
    {
      "name": "Button_Rim_Space_Gray_(Shiny_Parts)",
      "mesh": 0
    },
    {
      "name": "Display_Display",
      "mesh": 1
    },
    {
      "name": "Switch_Space_Gray_(Shiny_Parts)",
      "mesh": 2
    },
    {
      "name": "Display_Plastic_Black",
      "mesh": 3
    },
    {
      "name": "phoneWithSim.obj",
      "children": [
        0,
        1,
        2,
        3
      ]
    }
  ],
  "bufferViews": [
    {
      "buffer": 0,
      "byteOffset": 0,
      "byteLength": 65952,
      "target": 34962,
      "byteStride": 12
    },
    {
      "buffer": 0,
      "byteOffset": 65952,
      "byteLength": 65952,
      "target": 34962,
      "byteStride": 12
    },
    {
      "buffer": 0,
      "byteOffset": 131904,
      "byteLength": 43968,
      "target": 34962,
      "byteStride": 8
    },
    {
      "buffer": 0,
      "byteOffset": 175872,
      "byteLength": 14688,
      "target": 34962,
      "byteStride": 12
    },
    {
      "buffer": 0,
      "byteOffset": 190560,
      "byteLength": 14688,
      "target": 34962,
      "byteStride": 12
    },
    {
      "buffer": 0,
      "byteOffset": 205248,
      "byteLength": 9792,
      "target": 34962,
      "byteStride": 8
    },
    {
      "buffer": 0,
      "byteOffset": 215040,
      "byteLength": 274104,
      "target": 34962,
      "byteStride": 12
    },
    {
      "buffer": 0,
      "byteOffset": 489144,
      "byteLength": 274104,
      "target": 34962,
      "byteStride": 12
    },
    {
      "buffer": 0,
      "byteOffset": 763248,
      "byteLength": 182736,
      "target": 34962,
      "byteStride": 8
    },
    {
      "buffer": 0,
      "byteOffset": 945984,
      "byteLength": 132120,
      "target": 34962,
      "byteStride": 12
    },
    {
      "buffer": 0,
      "byteOffset": 1078104,
      "byteLength": 132120,
      "target": 34962,
      "byteStride": 12
    },
    {
      "buffer": 0,
      "byteOffset": 1210224,
      "byteLength": 88080,
      "target": 34962,
      "byteStride": 8
    }
  ],
  "buffers": [
    {
      "byteLength": 1298304,
      "uri": "data:application/octet-stream;base64,"
    }
  ],
  "accessors": [
    {
      "bufferView": 0,
      "componentType": 5126,
      "count": 5496,
      "max": [
        0.7738440036773682,
        0.18125900626182556,
        4.456305980682373
      ],
      "min": [
        -1.4917900562286377,
        -0.2940410077571869,
        -4.921393871307373
      ],
      "type": "VEC3"
    },
    {
      "bufferView": 1,
      "componentType": 5126,
      "count": 5496,
      "max": [
        1,
        1,
        1
      ],
      "min": [
        -1,
        -1,
        -1
      ],
      "type": "VEC3"
    },
    {
      "bufferView": 2,
      "componentType": 5126,
      "count": 5496,
      "max": [
        1.0648000240325928,
        1.0648000240325928
      ],
      "min": [
        -0.06480000168085098,
        -7.40749979019165
      ],
      "type": "VEC2"
    },
    {
      "bufferView": 3,
      "componentType": 5126,
      "count": 1224,
      "max": [
        2.382910966873169,
        0.18127599358558655,
        4.418466091156006
      ],
      "min": [
        -1.7010350227355957,
        -0.2940399944782257,
        -4.879897117614746
      ],
      "type": "VEC3"
    },
    {
      "bufferView": 4,
      "componentType": 5126,
      "count": 1224,
      "max": [
        1,
        1,
        1
      ],
      "min": [
        -1,
        -1,
        -1
      ],
      "type": "VEC3"
    },
    {
      "bufferView": 5,
      "componentType": 5126,
      "count": 1224,
      "max": [
        1.25,
        1
      ],
      "min": [
        -0.25,
        0
      ],
      "type": "VEC2"
    },
    {
      "bufferView": 6,
      "componentType": 5126,
      "count": 22842,
      "max": [
        2.7146599292755127,
        0.13280899822711945,
        4.656109809875488
      ],
      "min": [
        -2.0327789783477783,
        -0.2486339956521988,
        -4.922661781311035
      ],
      "type": "VEC3"
    },
    {
      "bufferView": 7,
      "componentType": 5126,
      "count": 22842,
      "max": [
        1,
        1,
        1
      ],
      "min": [
        -1,
        -1,
        -1
      ],
      "type": "VEC3"
    },
    {
      "bufferView": 8,
      "componentType": 5126,
      "count": 22842,
      "max": [
        2.9453001022338867,
        1.0549999475479126
      ],
      "min": [
        -2.032399892807007,
        -7.410099983215332
      ],
      "type": "VEC2"
    },
    {
      "bufferView": 9,
      "componentType": 5126,
      "count": 11010,
      "max": [
        2.6992108821868896,
        0.18127599358558655,
        4.588535785675049
      ],
      "min": [
        -2.0173299312591553,
        -0.2486339956521988,
        -4.854704856872559
      ],
      "type": "VEC3"
    },
    {
      "bufferView": 10,
      "componentType": 5126,
      "count": 11010,
      "max": [
        1,
        1,
        1
      ],
      "min": [
        -1,
        -1,
        -1
      ],
      "type": "VEC3"
    },
    {
      "bufferView": 11,
      "componentType": 5126,
      "count": 11010,
      "max": [
        4.394999980926514,
        8.298399925231934
      ],
      "min": [
        -3.3949999809265137,
        -7.298399925231934
      ],
      "type": "VEC2"
    }
  ],
  "materials": [
    {
      "pbrMetallicRoughness": {
        "metallicFactor": 0.5,
        "roughnessFactor": 0.5
      }
    },
    {
      "pbrMetallicRoughness": {
        "baseColorFactor": [
          0.18823529411764706,
          0.18823529411764706,
          0.18823529411764706,
          1
        ],
        "metallicFactor": 0.5,
        "roughnessFactor": 0.5
      },
      "emissiveFactor": [
        0.32941176470588235,
        0.32941176470588235,
        0.32941176470588235
      ]
    }
  ],
  "meshes": [
    {
      "primitives": [
        {
          "mode": 4,
          "attributes": {
            "POSITION": 0,
            "NORMAL": 1,
            "TEXCOORD_0": 2
          },
          "material": 0
        }
      ]
    },
    {
      "primitives": [
        {
          "mode": 4,
          "attributes": {
            "POSITION": 3,
            "NORMAL": 4,
            "TEXCOORD_0": 5
          },
          "material": 1
        }
      ]
    },
    {
      "primitives": [
        {
          "mode": 4,
          "attributes": {
            "POSITION": 6,
            "NORMAL": 7,
            "TEXCOORD_0": 8
          },
          "material": 0
        }
      ]
    },
    {
      "primitives": [
        {
          "mode": 4,
          "attributes": {
            "POSITION": 9,
            "NORMAL": 10,
            "TEXCOORD_0": 11
          },
          "material": 0
        }
      ]
    }
  ]
}