<svg width="345" height="344" viewBox="0 0 345 344" fill="none" xmlns="http://www.w3.org/2000/svg">
    <path d="M344.002 343.999C294.005 343.999 244.135 343.999 212.33 317.792C180.653 291.712 167.168 239.425 138.034 205.967C108.901 172.508 63.9931 157.751 38.4221 126.582C12.851 95.4137 6.3629 47.7066 0.00195312 -0.000488281H344.002V343.999Z"
          fill="#EEF4FA"/>
    <path d="M344.002 275.999C303.854 275.999 263.842 275.999 238.392 255.041C212.943 234.082 202.055 192.165 178.783 165.218C155.375 138.408 119.31 126.568 98.7593 101.526C78.209 76.4847 73.1735 38.2421 68.0019 -0.000488281H344.002V275.999Z"
          fill="#D6E9FB"/>
    <path d="M344.002 205.999C314.138 205.999 284.122 205.999 265.228 190.306C246.182 174.612 238.107 143.377 220.585 123.417C203.215 103.304 176.398 94.467 161.009 75.7258C145.62 57.1371 141.811 28.4921 138.002 -0.000488281H344.002V205.999Z"
          fill="#BEDFFD"/>
    <path d="M344.002 135.199C324.402 135.199 304.702 135.199 292.302 124.899C279.802 114.599 274.502 94.0995 263.002 80.9995C251.602 67.7995 234.002 61.9995 223.902 49.6995C213.802 37.4995 211.302 18.6995 208.802 -0.000488281H344.002V135.199Z"
          fill="#A3D4FE"/>
    <path d="M344.002 67.5995C334.202 67.5995 324.402 67.5995 318.102 62.4995C311.902 57.2995 309.202 47.0995 303.502 40.4995C297.802 33.8995 289.002 30.9995 283.902 24.8995C278.902 18.6995 277.702 9.39951 276.402 -0.000488281H344.002V67.5995Z"
          fill="#95CFFF"/>
</svg>
