<svg width="563" height="525" viewBox="0 20 563 525" fill="none" xmlns="http://www.w3.org/2000/svg">
    <path d="M562.998 525C483.441 522.504 404.032 520.147 347.524 485.063C291.165 449.98 257.706 382.171 206.552 332.389C155.397 282.607 86.5464 250.852 49.2214 198.435C11.7477 146.018 5.94821 73.0784 0 0H562.998V525Z"
          fill="#EEF4FA"/>
    <path d="M563.001 420.028C499.355 418.086 435.858 416.145 390.652 387.995C345.446 359.984 318.679 305.765 277.785 265.967C236.891 226.169 181.87 200.654 151.98 158.776C122.09 116.898 117.332 58.3795 112.573 0H563.001V420.028Z"
          fill="#D6E9FB"/>
    <path d="M563.003 314.917C515.269 313.53 467.683 312.005 433.779 291.066C399.874 269.988 379.799 229.358 349.165 199.406C318.383 169.592 277.192 150.456 254.738 119.116C232.283 87.6387 228.714 43.8193 225.294 0H563.003V314.917Z"
          fill="#BEDFFD"/>
    <path d="M563.009 209.944C531.186 208.974 499.363 208.003 476.76 193.997C454.305 179.992 440.922 152.813 420.4 132.983C400.028 113.015 372.369 100.396 357.498 79.3185C342.479 58.3795 340.248 29.2591 337.869 0H563.009V209.944Z"
          fill="#A3D4FE"/>
    <path d="M562.995 104.972C547.083 104.556 531.172 104.002 519.87 97.0681C508.569 89.996 501.877 76.4064 491.765 66.4223C481.504 56.5768 467.675 50.1981 460.239 39.6592C452.804 29.2591 451.614 14.5602 450.425 0H562.995V104.972Z"
          fill="#95CFFF"/>
</svg>
