<svg width="550" height="510" viewBox="0 0 550 510" fill="none" xmlns="http://www.w3.org/2000/svg">
    <path d="M549.989 510C472.27 507.575 394.696 505.285 339.494 471.204C284.437 437.124 251.752 371.252 201.779 322.892C151.806 274.532 84.5467 243.685 48.0841 192.765C11.4763 141.846 5.81077 70.9905 0 0H549.989V510Z"
          fill="#EEF4FA"/>
    <path d="M549.992 408.027C487.817 406.141 425.787 404.255 381.625 376.91C337.463 349.699 311.315 297.028 271.366 258.368C231.417 219.707 177.667 194.921 148.468 154.239C119.269 113.558 114.62 56.7116 109.972 0H549.992V408.027Z"
          fill="#D6E9FB"/>
    <path d="M549.994 305.919C503.363 304.572 456.877 303.09 423.755 282.75C390.634 262.274 371.023 222.805 341.097 193.708C311.026 164.746 270.787 146.157 248.851 115.713C226.916 85.1347 223.429 42.5674 220.088 0H549.994V305.919Z"
          fill="#BEDFFD"/>
    <path d="M550 203.946C518.912 203.003 487.825 202.06 465.744 188.455C443.808 174.849 430.734 148.447 410.687 129.184C390.785 109.786 363.765 97.5277 349.238 77.0523C334.566 56.7115 332.387 28.4231 330.062 0H550V203.946Z"
          fill="#A3D4FE"/>
    <path d="M549.986 101.973C534.442 101.569 518.899 101.03 507.858 94.2947C496.818 87.4247 490.281 74.2234 480.402 64.5245C470.379 54.9604 456.869 48.7638 449.605 38.5261C442.342 28.4231 441.18 14.1442 440.018 0H549.986V101.973Z"
          fill="#95CFFF"/>
</svg>
