<svg width="550" height="510" viewBox="0 0 550 510" fill="none" xmlns="http://www.w3.org/2000/svg">
    <path d="M547.461 510C477.611 495.92 407.964 482.027 344.39 456.87C281.019 431.713 223.924 395.292 170.879 351.549C118.036 307.618 69.4449 256.177 41.7074 196.664C13.7675 137.151 6.88375 69.7527 0 2.35445H547.461V510Z"
          fill="#EEF4FA"/>
    <path d="M550 410.531C493.676 399.195 437.135 387.858 385.832 367.413C334.53 347.17 288.248 317.817 245.46 282.392C202.671 246.764 163.376 205.265 140.89 157.087C118.404 109.11 112.947 54.454 107.271 0H550V410.531Z"
          fill="#D6E9FB"/>
    <path d="M547.461 322.245C503.25 313.426 458.782 304.369 418.684 288.399C378.328 272.43 342.086 249.549 308.413 221.662C274.998 193.776 243.896 161.122 226.417 123.225C208.682 85.5664 204.312 42.9024 199.942 4.03627e-06H547.461V322.245Z"
          fill="#BEDFFD"/>
    <path d="M548.094 198.939C520.8 193.495 493.348 187.903 468.593 178.044C443.68 168.186 421.305 154.06 400.518 136.844C379.889 119.628 360.688 99.4697 349.897 76.0739C338.948 52.8252 336.25 26.4865 333.553 0.000645665H548.094V198.939Z"
          fill="#A3D4FE"/>
    <path d="M548.094 99.4697C534.447 96.674 520.8 94.0254 508.264 89.0225C495.887 84.1668 484.62 76.9568 474.306 68.4224C463.991 59.741 454.47 49.7352 448.916 38.1109C443.521 26.4865 442.252 13.2436 440.823 0.000656891L548.094 0.000645665L548.094 99.4697Z"
          fill="#95CFFF"/>
</svg>
