<svg xmlns="http://www.w3.org/2000/svg"  viewBox="0 0 80 80" width="80px" height="80px"><path stroke-miterlimit="10" stroke-width="2" d="M40 37A3 3 0 1 0 40 43 3 3 0 1 0 40 37zM41.216 37.257L48.106 21.716M42.121 42.121L51.142 51.142"/><path fill="none" stroke-miterlimit="10" stroke-width="2" d="M40 8A32 32 0 1 0 40 72A32 32 0 1 0 40 8Z"/><path d="M40 11A2 2 0 1 0 40 15 2 2 0 1 0 40 11zM40 17A1 1 0 1 0 40 19 1 1 0 1 0 40 17zM40 21A1 1 0 1 0 40 23 1 1 0 1 0 40 21zM22 39A1 1 0 1 0 22 41 1 1 0 1 0 22 39zM58 39A1 1 0 1 0 58 41 1 1 0 1 0 58 39zM40 65A2 2 0 1 0 40 69 2 2 0 1 0 40 65zM40 61A1 1 0 1 0 40 63 1 1 0 1 0 40 61zM40 57A1 1 0 1 0 40 59 1 1 0 1 0 40 57zM67 38A2 2 0 1 0 67 42 2 2 0 1 0 67 38zM62 39A1 1 0 1 0 62 41 1 1 0 1 0 62 39zM13 38A2 2 0 1 0 13 42 2 2 0 1 0 13 38zM18 39A1 1 0 1 0 18 41 1 1 0 1 0 18 39z"/><path d="M26.5 15.617A1 1 0 1 0 26.5 17.617A1 1 0 1 0 26.5 15.617Z" transform="rotate(-30 26.499 16.618)"/><path d="M53.5 62.383A1 1 0 1 0 53.5 64.38300000000001A1 1 0 1 0 53.5 62.383Z" transform="rotate(-30 53.496 63.384)"/><path d="M20.908 19.908A1 1 0 1 0 20.908 21.908A1 1 0 1 0 20.908 19.908Z" transform="rotate(-45.001 20.908 20.908)"/><path d="M59.092 58.092A1 1 0 1 0 59.092 60.092A1 1 0 1 0 59.092 58.092Z" transform="rotate(-45.001 59.091 59.093)"/><path d="M13.92 32.012A1 1 0 1 0 13.92 34.012A1 1 0 1 0 13.92 32.012Z" transform="rotate(-75.001 13.92 33.013)"/><path d="M66.08 45.988A1 1 0 1 0 66.08 47.988A1 1 0 1 0 66.08 45.988Z" transform="rotate(-75.001 66.081 46.99)"/><path d="M13.92 45.988A1 1 0 1 0 13.92 47.988A1 1 0 1 0 13.92 45.988Z" transform="rotate(-14.999 13.921 46.991)"/><path d="M66.08 32.012A1 1 0 1 0 66.08 34.012A1 1 0 1 0 66.08 32.012Z" transform="rotate(-14.999 66.085 33.014)"/><path d="M20.908 58.092A1 1 0 1 0 20.908 60.092A1 1 0 1 0 20.908 58.092Z" transform="rotate(-45.001 20.908 59.092)"/><path d="M59.092 19.908A1 1 0 1 0 59.092 21.908A1 1 0 1 0 59.092 19.908Z" transform="rotate(-45.001 59.092 20.909)"/><path d="M33.012 65.08A1 1 0 1 0 33.012 67.08A1 1 0 1 0 33.012 65.08Z" transform="rotate(-75.001 33.012 66.082)"/><path d="M46.988 12.92A1 1 0 1 0 46.988 14.92A1 1 0 1 0 46.988 12.92Z" transform="rotate(-75.001 46.99 13.92)"/><path d="M46.988 65.08A1 1 0 1 0 46.988 67.08A1 1 0 1 0 46.988 65.08Z" transform="rotate(-14.999 46.992 66.085)"/><path d="M33.012 12.92A1 1 0 1 0 33.012 14.92A1 1 0 1 0 33.012 12.92Z" transform="rotate(-14.999 33.014 13.92)"/><path d="M63.383 25.5A1 1 0 1 0 63.383 27.5A1 1 0 1 0 63.383 25.5Z" transform="rotate(-30 63.38 26.503)"/><path d="M16.617 52.5A1 1 0 1 0 16.617 54.5A1 1 0 1 0 16.617 52.5Z" transform="rotate(-30 16.615 53.5)"/><path d="M16.617 25.5A1 1 0 1 0 16.617 27.5A1 1 0 1 0 16.617 25.5Z" transform="rotate(-60 16.617 26.5)"/><path d="M63.383 52.5A1 1 0 1 0 63.383 54.5A1 1 0 1 0 63.383 52.5Z" transform="rotate(-60 63.383 53.502)"/><path d="M53.5 15.617A1 1 0 1 0 53.5 17.617A1 1 0 1 0 53.5 15.617Z" transform="rotate(-60 53.501 16.618)"/><path d="M26.5 62.383A1 1 0 1 0 26.5 64.38300000000001A1 1 0 1 0 26.5 62.383Z" transform="rotate(-60 26.5 63.384)"/></svg>
