<?xml version="1.0" encoding="utf-8"?>
<svg viewBox="0 0 500 500" xmlns="http://www.w3.org/2000/svg" xmlns:bx="https://boxy-svg.com">
  <g transform="matrix(3.658494, 0, 0, 3.510474, 109.135605, 52.213181)" style="">
    <path d="M 16.937 41.821 L 31.873 27.02 L 35.622 23.239 C 36.309 22.687 39.187 18.019 37.291 15.236 C 35.418 12.488 30.964 13.301 28.619 15.648 L 24.874 19.451 L 9.741 34.709 C 9.67 34.78 9.911 34.545 9.874 34.635 C 9.874 34.636 9.833 34.6 9.833 34.6 L 3.157 46.278 C 3.156 46.279 3.082 46.168 3.082 46.169 L 3.079 46.176 C 3.045 46.259 3.031 46.346 3.028 46.433 C 3.028 46.442 3.023 46.45 3.023 46.459 C 3.023 46.475 3.031 46.488 3.032 46.504 C 3.036 46.574 3.05 46.64 3.073 46.706 C 3.081 46.729 3.087 46.752 3.097 46.773 C 3.133 46.852 3.179 46.926 3.243 46.989 C 3.312 47.058 3.394 47.113 3.485 47.151 C 3.577 47.189 3.674 47.209 3.773 47.209 L 43.898 47.158 C 46.139 47.158 48.535 45.623 48.535 43.382 C 48.535 41.142 46.344 39.379 44.103 39.379 L 31.769 39.081 C 30.677 39.081 29.789 38.192 29.789 37.101 C 29.789 36.009 30.677 35.12 31.769 35.12 L 62.693 35.47 C 63.107 35.47 63.631 34.993 63.631 34.579 C 63.631 34.165 63.097 33.921 62.683 33.921 L 31.769 33.62 C 29.85 33.62 28.289 35.182 28.289 37.101 C 28.289 39.02 29.85 40.581 31.769 40.581 L 44.023 40.813 C 45.437 40.813 47.083 41.368 47.172 43.223 C 47.261 45.078 45.508 45.755 44.094 45.755 C 50.825 45.755 7.588 45.709 7.588 45.709 L 16.687 41.986 C 16.778 41.95 16.863 41.895 16.937 41.821 Z M 29.675 16.712 C 31.44 14.949 34.207 14.175 35.914 16.01 C 37.344 17.547 36.048 20.237 34.57 22.171 L 31.347 25.429 L 26.465 19.982 L 29.675 16.712 Z M 25.404 21.042 L 29.068 24.706 L 24.709 28.93 C 24.416 29.223 24.416 29.698 24.709 29.991 C 24.855 30.137 25.047 30.211 25.239 30.211 C 25.43 30.211 25.623 30.137 25.769 29.991 L 30.128 25.767 L 30.284 26.488 L 16.407 40.231 L 11.514 34.772 L 25.404 21.042 Z M 5.144 45.087 L 10.72 36.099 L 15.078 41.023 L 5.144 45.087 Z"/>
    <path d="M19.2255859,33.4932251c0.1914063,0,0.3837891-0.0732422,0.5302734-0.2197266l1.6835938-1.6826172   c0.2929688-0.2929688,0.2929688-0.7675781,0-1.0605469c-0.2919922-0.2919922-0.7666016-0.2939453-1.0605469,0l-1.6835938,1.6826172   c-0.2929688,0.2929688-0.2929688,0.7675781,0,1.0605469C18.8417969,33.4199829,19.0332031,33.4932251,19.2255859,33.4932251z"/>
    <path d="M 67.983 33.959 L 65.299 33.959 C 64.885 33.959 64.549 34.295 64.549 34.709 C 64.549 35.123 64.885 35.459 65.299 35.459 L 67.983 35.459 C 68.397 35.459 68.733 35.123 68.733 34.709 C 68.733 34.295 68.397 33.959 67.983 33.959 Z"/>
    <path d="M 70.516 33.986 L 70.34 33.986 C 69.926 33.986 69.59 34.322 69.59 34.736 C 69.59 35.15 69.926 35.486 70.34 35.486 L 70.516 35.486 C 70.93 35.486 71.266 35.15 71.266 34.736 C 71.266 34.322 70.93 33.986 70.516 33.986 Z" bx:origin="0.06 0.525"/>
  </g>
</svg>